<?xml version="1.0" standalone="no"?>
<!DOCTYPE svg PUBLIC "-//W3C//DTD SVG 20010904//EN"
 "http://www.w3.org/TR/2001/REC-SVG-20010904/DTD/svg10.dtd">
<svg version="1.0" xmlns="http://www.w3.org/2000/svg"
 width="170.000000pt" height="170.000000pt" viewBox="0 0 170.000000 170.000000"
 preserveAspectRatio="xMidYMid meet">
<metadata>
Created by potrace 1.11, written by Peter Selinger 2001-2013
</metadata>
<g transform="translate(0.000000,170.000000) scale(0.100000,-0.100000)"
fill="#000000" stroke="none">
<path d="M717 1690 c-334 -61 -585 -283 -684 -607 -23 -78 -26 -104 -26 -233
0 -129 3 -155 26 -233 89 -291 293 -495 584 -584 78 -23 104 -26 233 -26 129
0 155 3 233 26 291 89 495 293 584 584 23 78 26 104 26 233 0 129 -3 155 -26
233 -111 364 -414 600 -787 612 -63 2 -137 0 -163 -5z m-127 -445 c10 -12 15
-12 36 2 36 23 74 4 74 -37 0 -18 -6 -33 -15 -37 -14 -5 -14 -8 1 -24 14 -16
18 -16 31 -4 18 18 55 19 71 3 17 -17 15 -48 -3 -68 -14 -15 -14 -19 -1 -29
12 -10 20 -9 40 4 24 16 28 16 50 2 20 -14 26 -14 35 -3 8 10 7 17 -4 26 -18
15 -20 51 -3 68 16 16 53 15 71 -3 13 -12 17 -12 31 4 15 16 15 19 1 24 -9 4
-15 19 -15 37 0 41 38 60 74 37 21 -14 26 -14 36 -2 16 20 39 19 62 -2 22 -19
23 -41 4 -62 -12 -13 -12 -19 -2 -34 12 -15 15 -15 26 -2 18 22 56 18 74 -6
15 -22 12 -46 -8 -64 -9 -7 -7 -15 6 -27 10 -10 18 -14 18 -8 0 5 9 14 21 20
46 25 96 -53 52 -80 -17 -10 -17 -10 0 -20 21 -13 22 -53 2 -73 -13 -13 -13
-16 0 -27 18 -15 20 -51 3 -68 -17 -17 -48 -15 -68 3 -15 14 -18 14 -30 0 -10
-13 -10 -19 4 -33 20 -23 20 -41 -1 -64 -19 -22 -46 -23 -63 -3 -9 11 -16 12
-30 3 -17 -11 -17 -13 2 -39 16 -21 18 -31 9 -47 -15 -29 -40 -35 -68 -17 -19
13 -27 14 -39 4 -13 -10 -13 -14 1 -29 18 -20 20 -51 3 -68 -17 -17 -53 -15
-68 3 -11 13 -14 13 -27 -1 -14 -13 -14 -17 1 -33 20 -22 20 -40 -1 -63 -19
-22 -46 -23 -63 -3 -9 11 -15 12 -25 2 -11 -10 -11 -15 1 -28 31 -35 10 -79
-38 -79 -42 0 -62 45 -32 75 13 12 13 19 4 30 -10 12 -15 12 -36 -2 -36 -23
-74 -4 -74 36 0 17 7 34 15 38 13 7 12 11 -4 25 -17 14 -21 15 -32 2 -14 -17
-51 -18 -67 -2 -16 16 -15 48 1 67 12 14 11 19 -5 33 -10 10 -18 14 -18 8 0
-5 -9 -14 -21 -20 -43 -23 -92 43 -57 78 8 8 8 15 -2 27 -12 14 -15 14 -32 -2
-43 -39 -105 28 -64 70 13 13 13 16 -3 31 -16 15 -19 15 -31 1 -15 -18 -51
-20 -68 -3 -17 17 -15 53 3 68 13 11 13 14 0 27 -20 20 -19 60 3 73 16 10 16
10 0 20 -45 27 5 105 51 80 12 -6 21 -15 21 -20 0 -6 8 -2 18 8 13 12 15 20 6
27 -20 18 -23 42 -8 64 18 24 56 28 74 6 11 -13 14 -13 26 2 10 15 10 21 -2
34 -18 20 -18 38 3 61 19 22 46 23 63 3z"/>
<path d="M590 1175 c-9 -11 -9 -18 3 -29 13 -13 17 -13 30 2 15 16 15 19 -3
29 -14 10 -21 9 -30 -2z"/>
<path d="M1068 1176 c-17 -12 -17 -14 0 -29 15 -13 19 -13 31 0 11 13 11 17 0
28 -12 11 -17 11 -31 1z"/>
<path d="M496 1081 c-15 -16 -15 -19 -1 -31 13 -11 18 -11 30 1 11 11 11 17 1
31 -12 17 -14 17 -30 -1z"/>
<path d="M593 1080 c-17 -26 9 -49 31 -27 13 13 13 17 -2 30 -16 15 -19 15
-29 -3z"/>
<path d="M687 1082 c-12 -15 -12 -19 2 -32 14 -13 18 -13 31 0 13 13 13 17 -2
32 -15 15 -17 15 -31 0z"/>
<path d="M970 1081 c-13 -14 -13 -18 0 -31 13 -13 17 -13 32 2 15 15 15 17 0
31 -15 12 -19 12 -32 -2z"/>
<path d="M1067 1082 c-13 -15 -13 -19 0 -31 13 -11 17 -11 28 0 11 12 11 17 1
31 -12 17 -14 17 -29 0z"/>
<path d="M1163 1080 c-10 -14 -9 -21 3 -31 12 -10 18 -9 30 3 13 13 13 16 -4
31 -16 15 -19 15 -29 -3z"/>
<path d="M400 986 c-10 -13 -10 -19 0 -32 12 -14 15 -14 29 0 14 15 14 17 0
32 -14 14 -17 14 -29 0z"/>
<path d="M495 984 c-18 -14 -18 -14 0 -28 16 -11 21 -11 33 0 11 12 11 16 0
28 -12 11 -17 11 -33 0z"/>
<path d="M591 983 c-11 -13 -11 -17 0 -28 12 -11 17 -11 31 -1 17 12 17 14 0
29 -15 13 -19 13 -31 0z"/>
<path d="M690 986 c-10 -13 -10 -19 0 -32 12 -14 15 -14 29 0 14 15 14 17 0
32 -14 14 -17 14 -29 0z"/>
<path d="M782 984 c-11 -12 -10 -17 2 -30 15 -14 17 -14 32 0 14 14 14 18 0
31 -18 18 -18 18 -34 -1z"/>
<path d="M970 986 c-10 -13 -10 -19 0 -32 12 -14 15 -14 29 0 14 15 14 17 0
32 -14 14 -17 14 -29 0z"/>
<path d="M1067 982 c-15 -16 -15 -19 3 -29 26 -17 49 9 27 31 -13 13 -17 13
-30 -2z"/>
<path d="M1162 984 c-11 -12 -10 -17 2 -30 15 -14 18 -14 32 1 9 9 15 17 13
18 -2 2 -11 8 -19 14 -11 8 -18 8 -28 -3z"/>
<path d="M1260 986 c-10 -13 -10 -19 0 -32 12 -14 15 -14 29 0 14 15 14 17 0
32 -14 14 -17 14 -29 0z"/>
<path d="M875 980 c-7 -11 2 -30 13 -30 4 0 14 5 22 10 13 9 13 11 0 20 -19
12 -27 12 -35 0z"/>
<path d="M398 886 c-16 -11 -15 -14 2 -28 17 -15 20 -15 34 1 14 15 14 18 -2
28 -13 8 -22 7 -34 -1z"/>
<path d="M493 886 c-9 -11 -8 -17 5 -30 16 -14 19 -14 29 3 9 14 9 21 0 30
-14 14 -19 14 -34 -3z"/>
<path d="M593 889 c-9 -9 -9 -16 0 -30 10 -17 13 -17 29 -2 15 13 15 17 3 29
-16 17 -18 17 -32 3z"/>
<path d="M687 885 c-16 -11 -16 -13 1 -27 15 -13 19 -13 33 2 15 16 15 18 0
27 -12 8 -22 7 -34 -2z"/>
<path d="M781 886 c-17 -20 13 -43 34 -26 12 10 13 16 4 26 -6 8 -15 14 -19
14 -4 0 -13 -6 -19 -14z"/>
<path d="M881 886 c-9 -10 -8 -16 3 -25 10 -9 16 -8 25 3 9 10 8 16 -3 25 -10
9 -16 8 -25 -3z"/>
<path d="M969 886 c-13 -10 -13 -13 2 -28 16 -15 18 -15 33 1 14 15 14 18 -2
28 -13 8 -22 8 -33 -1z"/>
<path d="M1063 886 c-9 -11 -8 -17 5 -30 16 -14 19 -14 29 3 9 14 9 21 0 30
-14 14 -19 14 -34 -3z"/>
<path d="M1163 889 c-9 -9 -9 -16 0 -30 10 -17 13 -17 29 -2 15 13 15 17 3 29
-16 17 -18 17 -32 3z"/>
<path d="M1258 886 c-16 -12 -16 -14 0 -27 16 -13 19 -13 34 1 16 15 16 16 0
27 -13 8 -22 7 -34 -1z"/>
<path d="M497 792 c-15 -16 -15 -19 3 -29 25 -17 44 5 26 29 -12 17 -14 17
-29 0z"/>
<path d="M593 790 c-10 -14 -9 -21 3 -31 12 -10 18 -9 30 3 13 13 13 16 -4 31
-16 15 -19 15 -29 -3z"/>
<path d="M686 791 c-14 -15 -14 -18 2 -28 13 -8 22 -8 33 1 13 10 13 13 -2 28
-16 15 -18 15 -33 -1z"/>
<path d="M971 793 c-11 -13 -11 -17 3 -31 14 -15 18 -15 31 -1 14 14 14 17 -2
31 -16 14 -20 14 -32 1z"/>
<path d="M1066 791 c-14 -15 -14 -18 2 -28 13 -8 22 -8 33 1 13 10 13 13 -2
28 -16 15 -18 15 -33 -1z"/>
<path d="M1164 792 c-16 -26 11 -51 32 -30 13 12 12 16 -4 31 -16 15 -18 15
-28 -1z"/>
<path d="M782 788 c-9 -9 -7 -14 6 -24 23 -17 48 2 31 22 -14 17 -22 17 -37 2z"/>
<path d="M880 790 c-13 -8 -13 -11 1 -25 13 -14 17 -14 27 -2 16 19 -7 40 -28
27z"/>
<path d="M593 696 c-9 -11 -8 -17 6 -30 16 -15 20 -15 31 -2 10 13 9 18 -3 31
-19 18 -19 18 -34 1z"/>
<path d="M690 695 c-10 -12 -9 -18 4 -30 15 -15 17 -15 32 0 9 9 15 17 13 18
-2 2 -11 8 -20 15 -13 10 -19 9 -29 -3z"/>
<path d="M790 696 c-10 -13 -10 -19 0 -32 12 -14 15 -14 29 0 14 15 14 17 0
32 -14 14 -17 14 -29 0z"/>
<path d="M973 696 c-9 -11 -8 -17 5 -29 15 -13 19 -13 30 -1 11 12 11 17 -2
29 -17 18 -18 18 -33 1z"/>
<path d="M1070 696 c-18 -23 9 -49 33 -31 16 11 16 13 -2 29 -16 15 -20 15
-31 2z"/>
<path d="M882 691 c-10 -6 -10 -10 3 -21 18 -15 42 0 31 19 -8 13 -16 14 -34
2z"/>
<path d="M793 600 c-10 -14 -9 -21 3 -31 12 -10 18 -10 28 2 12 12 11 17 -3
31 -16 16 -17 16 -28 -2z"/>
<path d="M979 601 c-12 -14 -12 -18 3 -33 15 -15 17 -15 31 0 12 15 12 19 -3
33 -16 15 -19 15 -31 0z"/>
<path d="M692 598 c-9 -9 -8 -16 5 -30 15 -17 17 -17 29 0 9 12 9 21 2 29 -13
16 -21 16 -36 1z"/>
<path d="M884 596 c-9 -10 -7 -15 6 -24 24 -15 45 5 25 24 -16 17 -17 17 -31
0z"/>
<path d="M797 502 c-15 -16 -15 -19 3 -29 25 -17 44 5 26 29 -12 17 -14 17
-29 0z"/>
<path d="M891 500 c-12 -7 -12 -11 1 -24 13 -13 18 -13 27 -2 15 17 -8 39 -28
26z"/>
</g>
</svg>
